<svg xmlns="http://www.w3.org/2000/svg" xmlns:xlink="http://www.w3.org/1999/xlink" fill="#fff" version="1.1" x="0px" y="0px" viewBox="0 0 100 100" style="enable-background:new 0 0 100 100;" xml:space="preserve"><g><g><path d="M49.3,70c0,0,0-0.1,0-0.1c0,0,0,0,0-0.1c0,0,0-0.1,0-0.1c0,0,0-0.1,0-0.1c0,0,0-0.1,0-0.1c0,0,0-0.1,0-0.1c0,0,0,0,0-0.1    c0-0.1,0-0.1,0-0.2c0-0.1,0-0.1,0-0.2c0,0,0,0,0,0c-0.1-2-1.7-3.5-3.7-3.5c-1.9,0-3.5,1.5-3.7,3.4l0,0l0,0c0,0.1,0,0.1,0,0.2    c0,0,0,0,0,0c0,0.1,0,0.1,0,0.2c0,0.1,0,0.1,0,0.2c0,0,0,0,0,0.1c0,0,0,0.1,0,0.1c0,0,0,0.1,0,0.1c0,0,0,0.1,0,0.1    c0,0,0,0.1,0,0.1c0,0,0,0,0,0.1c0,0,0,0.1,0,0.1c0,0,0,0,0,0c0.4,1.7,1.9,2.9,3.7,2.9c1.6,0,3-1,3.5-2.5l0,0c0,0,0,0,0,0    C49.2,70.3,49.3,70.1,49.3,70C49.3,70,49.3,70,49.3,70z"/><path d="M56.2,68.8H51c0,0.1,0,0.3,0,0.4c0,0.4-0.1,0.8-0.1,1.2h5.5c-0.1-0.4-0.1-0.8-0.1-1.2C56.2,69.1,56.2,68.9,56.2,68.8z"/><path d="M40.3,68.8h-5v1.6h5.1c-0.1-0.4-0.1-0.8-0.1-1.2C40.3,69.1,40.3,68.9,40.3,68.8z"/><path d="M69.9,61.9l5-28.2H33.5L32,25.3v-1.4h-8.9v1.6h7.3l1.7,9.8h0l4.9,27.8v0h0l0,0h31.3c1.5,0.1,2.6,1.3,2.6,2.8    c0,1.5-1.3,2.8-2.8,2.8H67c0,0.1,0,0.3,0,0.4c0,0.4-0.1,0.8-0.1,1.2h1.3c2.4,0,4.4-2,4.4-4.4C72.6,64.2,71.5,62.6,69.9,61.9z     M65.6,38l1.6,0.2l-3.1,20.2l-1.6-0.2L65.6,38z M57.3,38.1l1.6,0.1l-1.2,20.2l-1.6-0.1L57.3,38.1z M49.4,38.1l1.2,20.2l-1.6,0.1    l-1.2-20.2L49.4,38.1z M41.2,38l3.1,20.2l-1.6,0.2l-3.1-20.2L41.2,38z"/><path d="M65.3,69.9C65.3,69.8,65.3,69.8,65.3,69.9c0-0.1,0-0.1,0-0.2c0,0,0-0.1,0-0.1c0,0,0-0.1,0-0.1c0,0,0-0.1,0-0.1    c0,0,0,0,0-0.1c0-0.1,0-0.1,0-0.2c0-0.1,0-0.1,0-0.2c0,0,0,0,0,0c-0.1-2-1.7-3.5-3.7-3.5c-2.1,0-3.7,1.7-3.7,3.7    c0,0.1,0,0.1,0,0.2c0,0,0,0,0,0.1c0,0,0,0.1,0,0.1c0,0,0,0.1,0,0.1c0,0,0,0.1,0,0.1c0,0,0,0.1,0,0.1c0,0,0,0,0,0.1    c0,0,0,0.1,0,0.1c0,0,0,0,0,0c0.4,1.7,1.9,2.9,3.7,2.9c1.8,0,3.3-1.3,3.7-2.9c0,0,0,0,0,0C65.3,69.9,65.3,69.9,65.3,69.9z"/></g></g></svg>